# xmcd
#
# Track frame offsets: 
#        150
#        12752
#        33249
#        56111
#        69995
#        99299
#
# Disc length: 3764 seconds
#
# Revision: 2
# Processed by: cddbd v1.5.2PL0 Copyright (c) Steve Scherf et al.
# Submitted via: ExactAudioCopy v1.0b3
#
DISCID=400eb206
DTITLE=niece e.p. - niece
DYEAR=1900
DGENRE=Pop
TTITLE0=ไปพัก REST UP
TTITLE1=บีบมือ  SQUEEZE
TTITLE2=รู้ไหม? SENTIMENTAL LOVE
TTITLE3=JUST DON'T STOP
TTITLE4=ดอกไม้ FLOWER [1 STEP BEYOND MIX]
TTITLE5=Data Track
EXTD=
EXTT0=
EXTT1=
EXTT2=
EXTT3=
EXTT4=
EXTT5=
PLAYORDER=
